<?xml version="1.0" encoding="UTF-8"?>
<svg width="144px" height="144px" viewBox="0 0 144 144" version="1.1" xmlns="http://www.w3.org/2000/svg" xmlns:xlink="http://www.w3.org/1999/xlink">
    <!-- Generator: Sketch 47 (45396) - http://www.bohemiancoding.com/sketch -->
    <title>logo</title>
    <desc>Created with Sketch.</desc>
    <defs></defs>
    <g id="Page-1" stroke="none" stroke-width="1" fill="none" fill-rule="evenodd">
        <g id="logo" fill-rule="nonzero">
            <path d="M32.463,71.5 L0,71.5 C0,32.5 32.5,0 71.5,0 L71.5,32.463 C50.5,32.463 32.463,50.5 32.463,71.5 Z" id="Shape" fill="#358FFF"></path>
            <path d="M71.883,143.766 C32.246,143.766 0,111.521 0,71.883 C0,62.919 7.268,55.652 16.231,55.652 C25.195,55.652 32.463,62.92 32.463,71.883 C32.463,93.619 50.147,111.303 71.882,111.303 C80.846,111.303 88.114,118.571 88.114,127.534 C88.115,136.499 80.847,143.766 71.883,143.766 Z" id="Shape" fill="#157CFC"></path>
            <path d="M71.883,143.766 C62.919,143.766 55.652,136.499 55.652,127.535 C55.652,118.571 62.92,111.304 71.883,111.304 C93.619,111.304 111.303,93.62 111.303,71.884 C111.303,62.92 118.571,55.653 127.534,55.653 C136.498,55.653 143.766,62.921 143.766,71.884 C143.766,111.521 111.52,143.766 71.883,143.766 Z" id="Shape" fill="#006CEC"></path>
            <path d="M127.534,88.115 C118.57,88.115 111.303,80.847 111.303,71.883 C111.303,50.148 93.619,32.463 71.883,32.463 C62.919,32.463 55.652,25.196 55.652,16.232 C55.651,7.268 62.919,0 71.883,0 C111.52,0 143.766,32.246 143.766,71.883 C143.766,80.848 136.499,88.115 127.534,88.115 Z" id="Shape" fill="#005AC5"></path>
        </g>
    </g>
</svg>